<svg width="14" height="12" viewBox="0 0 14 12" fill="none" xmlns="http://www.w3.org/2000/svg">
<path d="M2 7.99999V12H6V7.99999H8V12H12V7.99999L7 3.51599L2 7.99999Z" fill="#C1C6CE"/>
<path d="M13.831 6.365L12 4.751V0H10V2.987L7.332 0.635C7.312 0.618 7.289 0.612 7.268 0.598C7.24297 0.579705 7.21617 0.56396 7.188 0.551C7.15711 0.540195 7.12532 0.532163 7.093 0.527C7.062 0.521 7.032 0.515 7 0.515C6.969 0.515 6.939 0.521 6.908 0.527C6.87553 0.531919 6.84368 0.5403 6.813 0.552C6.785 0.563 6.76 0.581 6.733 0.598C6.712 0.612 6.688 0.618 6.669 0.635L0.170998 6.365C0.0162629 6.50291 -0.0375724 6.72187 0.0355703 6.9158C0.108713 7.10974 0.29373 7.23862 0.500998 7.24C0.62293 7.24035 0.740734 7.19586 0.831998 7.115L7 1.677L13.169 7.115C13.3778 7.27913 13.6784 7.25178 13.8542 7.05265C14.03 6.85352 14.0198 6.55183 13.831 6.365Z" fill="#C1C6CE"/>
</svg>
